# xmcd
#
# Track frame offsets:
#	150
#	13537
#	29036
#	42775
#	56644
#	69780
#	82602
#	97188
#	108674
#	123203
#	141235
#	155791
#	172504
#	185176
#	200706
#	213164
#	226574
#	244890
#	262132
#	278015
#	294137
#	306144
#
# Disc length: 4276 seconds
#
# Revision: 2
# Processed by: cddbd v1.5.2PL0 Copyright (c) Steve Scherf et al.
# Submitted via: EasyCDDAExtractor 12.0.5.1
#
DISCID=3210b216
DTITLE=Tanya Tucker - Hits
DYEAR=1992
DGENRE=Country
TTITLE0=San Antonio Stroll
TTITLE1=Delta Dawn
TTITLE2=Don't Believe My Heart Can Stand Another You
TTITLE3=The Jamestown Ferry
TTITLE4=Here's Some Love
TTITLE5=Would You Lay With Me (In A Field Of Stone)
TTITLE6=Blood Red And Going Down
TTITLE7=Pecos Promenade
TTITLE8=What's Your Mama's Name Child
TTITLE9=Texas (When I Die)
TTITLE10=Just Another Love
TTITLE11=I Won't Take Less Than Your Love
TTITLE12=Daddy And Home
TTITLE13=If It Don't Come Easy
TTITLE14=Strong Enough To Bend
TTITLE15=It Won't Be Me
TTITLE16=I'll Come Back As Another Woman
TTITLE17=Love Me Like You Used To
TTITLE18=Down To My Last Teardrop
TTITLE19=My Arms Stay Open All Night
TTITLE20=Walking Shoes
TTITLE21=Don't Go Out
EXTD=
EXTT0=
EXTT1=
EXTT2=
EXTT3=
EXTT4=
EXTT5=
EXTT6=
EXTT7=
EXTT8=
EXTT9=
EXTT10=
EXTT11=
EXTT12=
EXTT13=
EXTT14=
EXTT15=
EXTT16=
EXTT17=
EXTT18=
EXTT19=
EXTT20=
EXTT21=
PLAYORDER=
